<?xml version="1.0" standalone="no"?>
<!DOCTYPE svg PUBLIC "-//W3C//DTD SVG 20010904//EN"
 "http://www.w3.org/TR/2001/REC-SVG-20010904/DTD/svg10.dtd">
<svg version="1.0" xmlns="http://www.w3.org/2000/svg"
 width="882.000000pt" height="882.000000pt" viewBox="0 0 882.000000 882.000000"
 preserveAspectRatio="xMidYMid meet">
<metadata>
Created by potrace 1.14, written by Peter Selinger 2001-2017
</metadata>
<g transform="translate(0.000000,882.000000) scale(0.100000,-0.100000)"
fill="#000000" stroke="none">
<path d="M4190 8814 c-8 -1 -49 -8 -90 -14 -41 -7 -83 -14 -92 -16 -49 -11
-61 -14 -76 -18 -9 -3 -30 -8 -47 -10 -16 -3 -66 -14 -110 -25 -44 -11 -91
-22 -105 -25 -94 -18 -289 -85 -370 -126 -19 -10 -96 -49 -170 -86 -110 -55
-263 -145 -315 -186 -5 -5 -50 -38 -100 -75 -49 -37 -95 -72 -101 -77 -6 -6
-33 -29 -60 -51 -50 -42 -175 -164 -209 -206 -11 -13 -56 -67 -100 -119 -65
-76 -151 -181 -218 -265 -41 -52 -134 -195 -130 -199 4 -3 1 -6 -5 -6 -7 0
-12 -7 -12 -15 0 -8 -3 -15 -8 -15 -4 0 -18 -21 -32 -47 -13 -27 -27 -50 -31
-53 -9 -8 -136 -271 -144 -300 -4 -14 -11 -29 -15 -35 -6 -9 -74 -203 -86
-245 -2 -8 -22 -73 -45 -145 -34 -111 -68 -234 -85 -310 -10 -48 -44 -244 -49
-285 -3 -25 -7 -61 -10 -80 -5 -35 -12 -129 -20 -275 -8 -143 -10 -146 -135
-160 -103 -13 -210 -68 -278 -144 -35 -39 -82 -108 -82 -120 0 -6 -4 -19 -9
-29 -5 -9 -14 -29 -20 -44 -7 -18 -18 -28 -31 -28 -11 0 -22 0 -25 0 -22 -1
-96 -56 -120 -90 l-30 -42 -3 -897 -2 -898 28 -54 c29 -55 85 -99 127 -98 47
1 58 -8 72 -55 13 -43 76 -137 129 -192 47 -49 119 -86 194 -100 14 -2 59 -11
100 -19 65 -12 113 -21 170 -30 8 -1 42 -5 75 -10 33 -4 71 -12 85 -17 14 -5
46 -12 71 -15 103 -11 225 88 244 198 11 64 12 149 2 149 -6 0 -6 5 0 12 5 7
7 60 6 118 -4 126 -4 103 0 228 1 56 -2 102 -7 102 -5 0 -4 6 1 12 5 7 7 58 6
113 -3 124 -3 110 0 175 2 30 -1 63 -5 73 -5 9 -5 17 -1 17 4 0 7 51 6 112 -2
62 -3 119 -3 126 0 6 0 32 0 57 0 25 0 52 0 60 0 8 0 35 0 60 0 25 0 52 0 60
0 8 0 35 0 60 0 25 0 51 0 58 0 6 1 38 3 70 1 31 -2 57 -6 57 -6 0 -6 5 0 13
5 6 7 37 6 67 -2 30 -3 61 -3 68 0 6 0 32 0 57 0 25 0 52 0 60 0 8 0 35 0 60
0 25 0 52 0 60 0 8 0 35 0 60 0 25 0 51 0 58 0 6 1 64 2 128 1 63 -1 123 -5
132 -3 9 -2 17 4 17 6 0 8 3 6 8 -3 4 -8 29 -11 55 -13 99 -76 161 -202 202
l-50 16 2 72 c2 89 15 270 19 277 2 3 6 26 9 50 5 43 9 63 21 120 3 14 7 34 9
45 4 18 50 222 61 270 20 85 20 85 27 105 3 8 23 65 43 125 61 180 125 322
216 477 16 27 29 53 29 58 0 6 4 10 9 10 5 0 13 9 16 21 10 29 96 173 106 177
5 2 9 8 9 13 0 9 36 65 50 79 3 3 23 28 45 55 22 28 44 55 50 61 5 7 37 43 70
80 88 102 320 330 365 360 22 15 40 31 40 35 0 5 6 9 14 9 8 0 16 3 18 8 5 10
97 72 108 72 6 0 10 3 10 8 0 4 20 18 45 32 25 14 45 28 45 32 0 5 4 8 10 8 5
0 43 20 83 45 41 25 79 45 85 45 5 0 15 7 22 15 6 8 15 14 18 13 4 -1 34 11
67 26 91 42 115 53 175 75 59 23 186 60 229 67 14 3 64 14 111 25 47 11 96 22
110 25 14 2 36 7 49 10 61 13 467 20 609 10 83 -6 194 -24 255 -41 26 -8 48
-14 50 -14 1 0 9 -2 17 -5 35 -12 257 -78 275 -82 11 -2 52 -15 90 -30 39 -14
78 -28 88 -31 9 -3 17 -9 17 -14 0 -5 6 -9 14 -9 8 0 42 -16 76 -35 34 -19 66
-35 71 -35 5 0 9 -4 9 -10 0 -5 5 -10 11 -10 27 0 365 -237 473 -331 87 -76
195 -190 295 -309 16 -19 38 -45 48 -56 10 -12 32 -39 48 -60 17 -20 35 -42
41 -48 23 -24 204 -337 204 -354 0 -6 3 -12 8 -14 21 -9 213 -421 227 -487 2
-9 11 -36 20 -61 14 -40 54 -189 69 -260 3 -14 10 -45 16 -70 14 -66 17 -81
26 -130 4 -25 8 -47 9 -50 1 -3 5 -30 9 -60 5 -30 10 -64 13 -75 7 -35 11
-335 3 -340 -4 -2 -21 -7 -38 -10 -56 -10 -82 -24 -131 -73 -38 -38 -51 -60
-61 -103 -11 -43 -14 -302 -14 -1299 -1 -685 2 -1265 6 -1289 9 -52 67 -134
118 -166 58 -37 98 -44 155 -29 28 8 73 18 100 24 28 5 60 11 71 14 12 2 37 7
55 10 19 3 58 10 88 16 29 5 57 7 62 4 5 -3 9 -2 9 3 0 4 19 9 42 10 53 3 132
29 178 58 62 39 176 178 185 225 7 36 21 49 73 65 65 22 93 43 131 100 l26 40
0 900 c0 885 0 901 -20 939 -25 46 -87 93 -133 100 -36 5 -62 22 -62 40 0 12
-51 119 -72 150 -37 54 -150 141 -198 150 -3 1 -10 4 -16 8 -17 11 -65 20
-139 25 -76 6 -88 15 -91 68 -1 17 -5 86 -8 155 -7 143 -13 225 -20 266 -8 53
-17 109 -21 139 -2 17 -9 55 -15 85 -6 30 -13 69 -16 85 -3 17 -16 75 -30 130
-14 55 -26 107 -28 115 -24 99 -95 316 -128 390 -33 73 -225 461 -250 505 -66
116 -205 307 -312 429 -155 176 -352 378 -420 431 -21 17 -43 35 -50 40 -6 6
-47 36 -91 68 -44 31 -84 60 -90 65 -11 9 -126 84 -194 127 -50 31 -295 155
-307 155 -4 0 -36 12 -72 26 -35 14 -72 27 -81 29 -9 2 -36 11 -61 20 -25 9
-52 18 -60 20 -8 2 -84 22 -167 44 -84 21 -153 37 -153 35 0 -2 -10 0 -22 5
-21 8 -75 16 -178 28 -43 4 -489 11 -510 7z"/>
<path d="M4470 8206 c0 -15 -21 -70 -47 -124 -46 -96 -63 -175 -41 -188 6 -4
5 -10 -3 -16 -10 -7 -8 -8 9 -5 12 3 20 1 16 -4 -10 -17 -13 -50 -3 -44 5 4 7
11 4 16 -8 12 8 12 21 0 12 -13 84 -21 84 -10 0 5 7 9 15 9 8 0 15 5 15 11 0
5 5 7 10 4 6 -4 10 -3 9 2 -1 4 3 21 9 36 19 46 14 72 -29 154 -41 78 -46 93
-54 147 -5 38 -15 46 -15 12z"/>
<path d="M4426 7812 c-2 -4 11 -7 30 -8 19 0 32 1 29 4 -7 8 -55 11 -59 4z"/>
<path d="M5077 7462 c5 -12 2 -12 -14 -3 -16 8 -24 7 -33 -4 -7 -8 -16 -13
-20 -10 -5 3 -12 1 -15 -5 -5 -8 -11 -7 -21 1 -8 6 -17 9 -21 5 -3 -3 -1 -6 5
-6 7 0 12 -4 12 -10 0 -13 -33 -13 -47 1 -8 8 -13 7 -18 -2 -5 -7 -4 -10 3 -5
6 3 13 2 17 -4 3 -5 3 -10 -2 -11 -22 -2 -44 -8 -74 -22 -19 -8 -58 -23 -87
-32 -45 -15 -111 -56 -120 -77 -2 -3 -14 -19 -28 -35 -60 -68 -78 -111 -78
-195 -1 -43 -2 -78 -4 -78 -4 0 -116 74 -122 80 -11 13 -102 70 -111 70 -5 0
-9 6 -9 13 -1 20 -57 80 -69 73 -6 -4 -9 -1 -6 6 5 14 -69 71 -91 71 -8 0 -14
4 -14 9 0 4 -7 8 -15 8 -8 0 -44 13 -79 30 -36 16 -78 32 -93 36 -76 16 -192
24 -198 14 -3 -5 -13 -6 -23 -3 -28 7 -72 -14 -72 -35 0 -10 -5 -23 -10 -28
-11 -11 -4 -44 9 -44 4 0 16 -8 27 -17 18 -17 82 -42 149 -59 17 -4 32 -8 35
-9 16 -5 49 -19 75 -30 16 -8 33 -11 37 -9 4 3 8 0 8 -5 0 -6 9 -11 19 -11 11
0 22 -4 25 -9 4 -6 113 -52 136 -56 3 -1 14 -4 25 -8 11 -3 31 -9 45 -11 103
-21 116 -27 158 -74 35 -38 45 -44 52 -32 5 8 10 10 10 5 0 -6 -5 -16 -12 -23
-8 -8 -8 -15 1 -26 13 -16 21 -147 9 -139 -5 2 -9 -12 -10 -31 -1 -20 -2 -48
-4 -63 -3 -43 -6 -177 -3 -183 1 -3 3 -18 4 -35 2 -16 4 -30 5 -30 1 0 3 -18
5 -40 2 -22 7 -51 11 -65 3 -14 9 -42 11 -62 3 -21 8 -36 12 -34 3 2 6 -22 6
-55 0 -46 3 -59 15 -59 12 0 13 -2 1 -9 -7 -5 -11 -13 -7 -19 3 -6 2 -13 -4
-17 -6 -4 -8 -10 -5 -15 3 -5 1 -29 -6 -52 -6 -24 -12 -47 -13 -53 -3 -20 -21
-42 -42 -53 -20 -11 -22 -8 -27 31 -3 23 -16 62 -28 87 -32 64 -40 122 -27
185 20 93 21 191 3 229 -27 56 -76 93 -142 107 -61 13 -207 16 -258 5 -76 -16
-215 -73 -215 -88 0 -4 -6 -8 -14 -8 -16 0 -151 -131 -181 -175 -34 -51 -103
-114 -132 -121 -15 -4 -47 -26 -69 -50 -23 -24 -44 -41 -46 -39 -3 4 -80 -121
-83 -135 -4 -17 -33 -68 -47 -84 -10 -11 -18 -23 -18 -28 0 -4 -7 -8 -15 -8
-8 0 -15 -4 -15 -10 0 -5 -6 -10 -12 -10 -20 0 -130 -123 -155 -172 -12 -24
-35 -72 -52 -108 -20 -44 -45 -77 -75 -102 -25 -21 -48 -38 -52 -38 -13 0
-124 -123 -124 -137 0 -8 -4 -11 -10 -8 -5 3 -10 0 -10 -9 0 -8 -3 -16 -7 -18
-12 -5 -57 -78 -72 -115 -8 -18 -17 -33 -21 -33 -14 0 -40 -93 -45 -154 -3
-50 -8 -62 -49 -107 -25 -28 -47 -55 -47 -60 -2 -12 -6 -28 -9 -34 -1 -3 -3
-8 -5 -12 -1 -5 -4 -15 -8 -23 -3 -8 -13 -40 -22 -70 -9 -30 -19 -62 -22 -70
-9 -22 -13 -59 -13 -115 0 -62 -7 -85 -26 -85 -8 0 -14 -4 -14 -9 0 -5 -4 -20
-9 -33 -5 -13 -9 -26 -10 -30 -1 -4 -7 -22 -12 -40 -6 -18 -12 -40 -14 -49 -4
-18 -20 -191 -30 -319 -2 -25 -4 -45 -6 -45 -7 0 -4 -132 4 -142 5 -7 7 -13 4
-13 -3 0 -1 -15 4 -32 6 -18 11 -38 13 -44 1 -7 7 -18 13 -25 25 -32 43 -81
39 -106 -5 -30 -19 -161 -19 -178 0 -5 3 -37 8 -70 4 -33 9 -73 11 -90 8 -69
17 -111 26 -123 6 -6 7 -12 4 -12 -8 0 23 -58 42 -79 28 -29 41 -58 43 -91 2
-19 9 -47 16 -62 7 -16 11 -28 8 -28 -9 0 64 -139 105 -199 49 -73 49 -72 65
-219 12 -113 44 -183 111 -242 34 -30 37 -36 35 -83 -2 -68 13 -108 72 -197
62 -92 158 -190 215 -219 24 -12 46 -30 49 -39 12 -32 82 -109 140 -153 32
-24 60 -46 63 -49 25 -28 106 -84 143 -100 25 -11 55 -32 65 -45 11 -14 25
-25 32 -25 6 0 9 -4 5 -10 -6 -10 104 -86 119 -82 4 2 15 -3 23 -10 8 -7 20
-13 27 -14 6 -1 27 -5 46 -8 53 -9 100 -16 150 -21 25 -2 45 -4 45 -5 0 -7 66
-14 135 -14 60 1 95 6 118 18 l32 17 0 -145 0 -144 -49 -41 c-59 -50 -81 -99
-76 -171 5 -66 36 -114 92 -143 17 -9 34 -25 37 -34 3 -10 4 -77 4 -149 -1
-72 2 -136 6 -142 5 -9 69 -12 227 -11 l219 1 1 36 c0 20 0 89 -1 154 l-1 116
44 31 c77 53 102 118 84 215 -8 38 -76 115 -104 116 -18 0 -23 45 -21 188 1
85 5 133 12 134 6 1 85 2 176 2 91 1 172 5 180 11 18 11 33 13 138 19 86 4
172 21 207 39 11 6 25 12 30 13 17 3 120 68 128 81 4 7 12 13 16 13 5 0 35 16
67 35 32 19 65 35 74 35 8 0 26 10 40 23 14 12 40 29 58 36 17 7 32 16 32 20
0 4 14 15 31 25 58 34 159 157 159 193 0 7 5 13 12 13 6 0 9 3 6 6 -3 3 -2 21
4 40 9 34 44 80 101 132 15 14 27 35 27 48 0 12 11 36 25 52 14 17 25 35 25
41 0 6 4 11 9 11 5 0 8 8 6 18 -1 9 10 42 26 72 27 55 43 103 53 170 3 19 8
46 10 60 3 14 7 54 10 90 6 76 37 170 97 295 23 50 43 95 44 100 0 6 4 15 7
21 4 6 4 14 0 18 -3 4 -7 23 -9 43 -1 20 -7 41 -13 47 -16 16 -12 41 13 67 26
29 76 130 102 204 12 34 21 94 30 185 10 107 16 143 25 160 5 10 7 32 4 49 -4
20 0 44 10 66 10 20 20 53 23 73 2 20 16 58 29 83 13 26 25 59 26 73 1 14 6
26 9 26 14 0 22 67 21 180 0 63 -2 122 -5 130 -10 37 -40 100 -48 100 -4 0 2
17 14 38 19 33 22 51 22 157 -1 66 -5 129 -9 140 -5 11 -9 30 -10 42 -1 12 -4
25 -8 29 -5 4 -8 16 -8 26 0 11 -4 16 -10 13 -6 -3 -7 1 -4 9 3 9 3 24 -1 34
-10 21 -11 26 -27 82 -7 25 -16 47 -19 50 -11 8 -69 117 -69 130 0 7 -18 50
-41 96 -26 56 -44 82 -52 78 -7 -4 -9 -4 -5 1 4 4 0 22 -9 39 -10 17 -18 34
-19 39 -1 4 -3 9 -4 12 -3 6 -7 22 -9 35 0 6 -6 10 -12 10 -6 0 -17 7 -25 15
-9 8 -13 15 -9 15 8 0 -22 56 -67 122 -21 31 -55 67 -74 79 -31 19 -55 54 -58
82 -1 5 -9 14 -18 21 -10 7 -18 20 -18 28 0 8 -11 24 -25 36 -14 12 -25 29
-25 37 0 25 -30 78 -59 105 -31 28 -111 143 -111 159 0 6 -4 11 -10 11 -5 0
-10 7 -10 15 0 8 -4 15 -10 15 -5 0 -10 7 -10 15 0 7 -6 18 -13 22 -7 4 -21
22 -31 38 -28 43 -102 111 -147 134 -22 12 -39 19 -39 16 0 -2 -21 18 -47 44
-61 60 -144 115 -250 165 -13 6 -23 14 -23 19 0 4 -9 7 -19 7 -11 0 -22 4 -25
8 -6 10 -59 15 -146 15 -75 0 -112 -7 -162 -28 -41 -16 -118 -91 -118 -113 0
-8 -35 -49 -78 -91 -70 -68 -80 -83 -96 -138 -17 -65 -36 -91 -35 -51 0 13 -2
37 -5 53 -3 17 -7 44 -10 60 -7 46 -16 85 -32 145 -24 88 -27 109 -28 220 -1
109 2 122 56 235 29 63 137 185 163 185 8 0 15 6 15 13 0 8 4 7 10 -3 7 -11
10 -11 10 -2 0 7 5 10 10 7 6 -3 10 -1 10 5 0 6 4 9 9 6 5 -3 21 1 37 9 15 7
31 12 36 9 4 -3 8 0 8 7 0 7 3 10 6 6 4 -3 28 5 55 19 27 13 49 21 49 17 0 -4
5 -2 12 5 7 7 18 12 25 12 28 0 143 94 143 117 0 7 5 13 11 13 31 0 100 130
92 173 -3 15 -10 27 -16 27 -5 0 -2 9 7 19 17 18 16 20 -3 26 -12 3 -25 4 -30
1 -5 -4 -11 -2 -13 4 -1 5 -25 12 -51 15 -37 5 -47 3 -41 -6 5 -8 3 -9 -7 -3
-8 4 -28 9 -46 10 -24 1 -30 -3 -26 -14z m-27 -12 c0 -5 -5 -10 -11 -10 -5 0
-7 5 -4 10 3 6 8 10 11 10 2 0 4 -4 4 -10z"/>
</g>
</svg>
